<?xml version="1.0" standalone="no"?>
<!DOCTYPE svg PUBLIC "-//W3C//DTD SVG 20010904//EN"
 "http://www.w3.org/TR/2001/REC-SVG-20010904/DTD/svg10.dtd">
<svg version="1.0" xmlns="http://www.w3.org/2000/svg"
 width="16.000000pt" height="16.000000pt" viewBox="0 0 16.000000 16.000000"
 preserveAspectRatio="xMidYMid meet">
<metadata>
Created by potrace 1.11, written by Peter Selinger 2001-2013
</metadata>
<g transform="translate(0.000000,16.000000) scale(0.002963,-0.002963)"
fill="#000000" stroke="none">
<path d="M2525 4891 c-77 -61 -142 -117 -143 -126 -4 -19 43 -91 64 -99 8 -3
54 25 106 65 l93 70 3 -307 c1 -212 6 -312 14 -321 8 -10 31 -13 82 -11 l71 3
0 415 0 415 -75 3 -75 2 -140 -109z"/>
<path d="M1496 4636 c-75 -32 -117 -73 -153 -150 -28 -60 -28 -63 -28 -256 0
-193 0 -196 28 -255 56 -119 130 -166 272 -173 145 -6 240 40 297 145 40 73
51 151 46 324 -3 140 -6 159 -29 209 -58 124 -133 171 -284 177 -78 3 -98 0
-149 -21z m213 -131 c17 -8 39 -34 52 -62 22 -44 24 -60 24 -208 0 -178 -8
-215 -56 -261 -27 -26 -37 -29 -94 -29 -57 0 -67 3 -94 29 -48 46 -56 83 -56
266 0 151 2 169 23 207 12 23 34 49 50 57 35 20 115 20 151 1z"/>
<path d="M3560 4647 c-109 -39 -201 -160 -188 -247 3 -23 7 -25 71 -28 77 -3
92 4 101 49 3 17 21 46 40 65 31 31 39 34 91 34 51 0 60 -3 86 -31 23 -25 29
-40 29 -78 0 -61 -21 -92 -121 -182 -46 -41 -135 -124 -197 -185 -108 -104
-114 -113 -119 -157 -9 -80 -21 -77 316 -77 218 0 300 3 309 12 7 7 12 36 12
65 0 41 -4 54 -19 63 -11 6 -90 10 -183 10 l-163 0 144 144 c179 178 196 205
196 306 0 58 -6 85 -22 117 -28 51 -83 98 -142 118 -54 18 -192 19 -241 2z"/>
<path d="M725 3717 c-104 -35 -174 -102 -201 -193 -51 -177 64 -340 257 -362
l60 -7 -86 -117 c-49 -67 -85 -125 -83 -135 3 -15 16 -19 71 -21 37 -2 74 1
82 6 29 15 295 396 315 450 54 143 -4 294 -138 358 -46 22 -75 28 -147 30 -57
3 -105 -1 -130 -9z m196 -150 c87 -58 91 -188 8 -248 -27 -19 -47 -24 -94 -24
-71 0 -119 28 -141 81 -45 107 26 214 141 214 37 0 62 -6 86 -23z"/>
<path d="M4244 3706 c-3 -7 -4 -38 -2 -67 l3 -54 180 -3 179 -2 -113 -114
-112 -113 3 -44 3 -44 108 -7 c147 -10 187 -36 187 -121 -1 -77 -60 -127 -152
-127 -74 0 -119 18 -149 61 -32 46 -37 49 -96 49 -70 0 -83 -7 -83 -41 0 -70
57 -136 156 -181 65 -30 241 -33 321 -5 66 23 136 85 158 139 33 83 16 198
-38 257 -28 31 -110 69 -165 77 l-44 7 112 112 111 111 -3 60 -3 59 -278 3
c-229 2 -278 0 -283 -12z"/>
<path d="M725 2511 c-85 -23 -147 -72 -176 -136 -35 -76 -16 -179 44 -233 l25
-24 -48 -46 c-142 -138 -56 -358 159 -403 32 -6 94 -9 145 -6 75 4 98 10 154
38 79 41 117 89 134 171 17 82 -6 152 -67 206 l-45 39 21 19 c37 34 61 93 61
153 0 68 -11 98 -51 144 -49 55 -119 80 -231 83 -52 2 -108 -1 -125 -5z m202
-140 c27 -14 53 -61 53 -95 0 -55 -75 -106 -155 -106 -50 1 -110 34 -125 70
-17 42 -4 97 32 123 47 35 139 39 195 8z m3 -346 c93 -48 90 -174 -6 -220 -49
-23 -139 -23 -183 -1 -72 38 -93 139 -39 193 53 52 156 65 228 28z"/>
<path d="M4528 2493 c-9 -10 -95 -128 -192 -263 l-177 -244 3 -66 3 -65 202
-3 202 -2 3 -88 3 -87 69 -3 c49 -2 72 1 77 10 5 7 9 48 9 91 l0 77 60 0 c50
0 61 3 71 21 11 21 8 104 -5 116 -4 4 -33 9 -66 11 l-60 4 0 242 c0 175 -3
245 -12 254 -7 7 -43 12 -93 12 -65 0 -85 -4 -97 -17z m39 -500 c-3 -2 -57 -2
-121 -1 l-117 3 118 168 118 168 3 -167 c1 -92 1 -169 -1 -171z"/>
<path d="M1390 1551 c-11 -22 -13 -64 -4 -98 6 -23 8 -23 200 -23 149 0 194
-3 194 -12 0 -7 -63 -158 -141 -336 -78 -177 -139 -329 -135 -337 8 -23 138
-21 158 3 9 9 82 169 162 354 144 330 147 338 144 400 l-3 63 -282 3 c-271 2
-283 2 -293 -17z"/>
<path d="M3522 1562 c-14 -9 -59 -419 -49 -446 5 -12 21 -16 74 -16 55 0 76 5
108 25 30 18 54 24 95 25 94 0 150 -52 150 -140 0 -93 -57 -150 -151 -150 -68
0 -111 25 -139 80 l-20 40 -80 0 -80 0 0 -32 c1 -76 65 -159 155 -199 69 -31
214 -38 287 -14 112 36 177 107 199 217 14 71 0 144 -40 202 -74 108 -241 153
-369 100 l-34 -14 7 68 c3 37 9 79 11 94 l5 28 182 2 182 3 0 65 0 65 -240 2
c-132 2 -246 -1 -253 -5z"/>
<path d="M2644 1188 c-53 -59 -257 -352 -281 -404 -37 -78 -39 -196 -6 -260
27 -51 92 -110 152 -137 69 -32 236 -31 306 1 112 51 175 148 175 267 0 85
-21 136 -80 195 -53 53 -116 81 -196 88 l-62 5 81 111 c44 61 81 120 81 131 1
18 -6 20 -74 23 -68 2 -78 0 -96 -20z m97 -401 c107 -56 106 -215 -1 -269 -72
-37 -174 -14 -211 46 -89 146 60 302 212 223z"/>
</g>
</svg>
